<mxfile host="Electron" modified="2024-02-04T16:03:31.283Z" agent="Mozilla/5.0 (X11; Linux x86_64) AppleWebKit/537.36 (KHTML, like Gecko) draw.io/23.0.2 Chrome/120.0.6099.109 Electron/28.1.0 Safari/537.36" etag="ur65ERZIR07J8KbJ1TPn" version="23.0.2" type="device">
  <diagram id="R2lEEEUBdFMjLlhIrx00" name="Page-1">
    <mxGraphModel dx="1364" dy="843" grid="1" gridSize="10" guides="1" tooltips="1" connect="1" arrows="1" fold="1" page="1" pageScale="1" pageWidth="850" pageHeight="1100" math="0" shadow="0" extFonts="Permanent Marker^https://fonts.googleapis.com/css?family=Permanent+Marker">
      <root>
        <mxCell id="0" />
        <mxCell id="1" parent="0" />
        <mxCell id="fapt2oidadXO4vm1QYsq-1" value="AUTH" style="swimlane;whiteSpace=wrap;html=1;" parent="1" vertex="1">
          <mxGeometry x="50" y="30" width="170" height="200" as="geometry" />
        </mxCell>
        <mxCell id="fapt2oidadXO4vm1QYsq-2" value="PG" style="shape=cylinder3;whiteSpace=wrap;html=1;boundedLbl=1;backgroundOutline=1;size=15;" parent="fapt2oidadXO4vm1QYsq-1" vertex="1">
          <mxGeometry x="55" y="60" width="60" height="80" as="geometry" />
        </mxCell>
        <mxCell id="fapt2oidadXO4vm1QYsq-3" value="CC" style="swimlane;whiteSpace=wrap;html=1;" parent="1" vertex="1">
          <mxGeometry x="255" y="30" width="170" height="200" as="geometry" />
        </mxCell>
        <mxCell id="fapt2oidadXO4vm1QYsq-4" value="PG" style="shape=cylinder3;whiteSpace=wrap;html=1;boundedLbl=1;backgroundOutline=1;size=15;" parent="fapt2oidadXO4vm1QYsq-3" vertex="1">
          <mxGeometry x="55" y="60" width="60" height="80" as="geometry" />
        </mxCell>
        <mxCell id="fapt2oidadXO4vm1QYsq-5" value="ARENA" style="swimlane;whiteSpace=wrap;html=1;" parent="1" vertex="1">
          <mxGeometry x="460" y="30" width="170" height="200" as="geometry" />
        </mxCell>
        <mxCell id="fapt2oidadXO4vm1QYsq-7" value="Redis" style="shape=process;whiteSpace=wrap;html=1;backgroundOutline=1;" parent="1" vertex="1">
          <mxGeometry x="50" y="370" width="120" height="60" as="geometry" />
        </mxCell>
        <mxCell id="fapt2oidadXO4vm1QYsq-8" value="kafka" style="shape=process;whiteSpace=wrap;html=1;backgroundOutline=1;" parent="1" vertex="1">
          <mxGeometry x="50" y="470" width="120" height="60" as="geometry" />
        </mxCell>
        <mxCell id="fapt2oidadXO4vm1QYsq-9" value="SandBox" style="swimlane;whiteSpace=wrap;html=1;" parent="1" vertex="1">
          <mxGeometry x="650" y="30" width="170" height="200" as="geometry" />
        </mxCell>
        <mxCell id="fapt2oidadXO4vm1QYsq-10" value="UCI, AI" style="swimlane;whiteSpace=wrap;html=1;" parent="1" vertex="1">
          <mxGeometry x="650" y="257" width="170" height="153" as="geometry" />
        </mxCell>
        <mxCell id="fapt2oidadXO4vm1QYsq-11" value="Base" style="swimlane;whiteSpace=wrap;html=1;" parent="1" vertex="1">
          <mxGeometry x="650" y="642" width="170" height="200" as="geometry" />
        </mxCell>
        <mxCell id="fapt2oidadXO4vm1QYsq-12" value="Mongo" style="shape=cylinder3;whiteSpace=wrap;html=1;boundedLbl=1;backgroundOutline=1;size=15;" parent="fapt2oidadXO4vm1QYsq-11" vertex="1">
          <mxGeometry x="55" y="60" width="60" height="80" as="geometry" />
        </mxCell>
        <mxCell id="fapt2oidadXO4vm1QYsq-13" value="Player" style="shape=umlActor;verticalLabelPosition=bottom;verticalAlign=top;html=1;outlineConnect=0;" parent="1" vertex="1">
          <mxGeometry x="390" y="470" width="30" height="60" as="geometry" />
        </mxCell>
        <mxCell id="K2CexRU4fHI6VR7WOp8c-1" value="MAIL" style="swimlane;whiteSpace=wrap;html=1;" parent="1" vertex="1">
          <mxGeometry x="650" y="440" width="170" height="153" as="geometry" />
        </mxCell>
      </root>
    </mxGraphModel>
  </diagram>
</mxfile>
